<svg xmlns="http://www.w3.org/2000/svg" viewBox="0 0 18 16" shape-rendering="crispEdges">
  <path fill="#ff4fa0" d="M2,2 h2 v2 h-2 z M4,2 h2 v2 h-2 z M6,2 h2 v2 h-2 z M10,2 h2 v2 h-2 z M12,2 h2 v2 h-2 z M14,2 h2 v2 h-2 z
                         M1,4 h2 v2 h-2 z M3,4 h12 v2 h-12 z M15,4 h2 v2 h-2 z
                         M2,6 h14 v2 h-14 z
                         M3,8 h12 v2 h-12 z
                         M4,10 h10 v2 h-10 z
                         M5,12 h8 v2 h-8 z
                         M7,14 h4 v2 h-4 z"></path>
</svg>
