<svg xmlns="http://www.w3.org/2000/svg" viewBox="0 0 18 16" shape-rendering="crispEdges">
  <path fill="#ff4fa0" d="M2,2 h2 v2 h-2 z M4,2 h2 v2 h-2 z M6,2 h2 v2 h-2 z M10,2 h2 v2 h-2 z M12,2 h2 v2 h-2 z M14,2 h2 v2 h-2 z
                         M1,4 h2 v2 h-2 z M3,4 h12 v2 h-12 z M15,4 h2 v2 h-2 z
                         M2,6 h6 v2 h-6 z M9,6 h1 v2 h-1 z M11,6 h5 v2 h-5 z
                         M3,8 h5 v2 h-5 z M8,8 h2 v2 h-2 z M11,8 h4 v2 h-4 z
                         M4,10 h3 v2 h-3 z M7,10 h1 v2 h-1 z M9,10 h3 v2 h-3 z
                         M5,12 h3 v2 h-3 z M9,12 h2 v2 h-2 z
                         M7,14 h2 v2 h-2 z"></path>
  <path fill="#2a0f2d" d="M9,4 h1 v2 h-1 z M8,6 h1 v2 h-1 z M9,8 h1 v2 h-1 z M8,10 h1 v2 h-1 z"></path>
</svg>
